REM DIRINDEX 1\2,1\3,1\4
REM DIRNAME folder01,folder02,folder03,folder04
TITLE ""
FILE "Disc2Track16.mp3" MP3
  TRACK 01 AUDIO
    TITLE "0:"
    INDEX 01 00:00:00
  TRACK 02 AUDIO
    TITLE "4:cjc085_1631"
    INDEX 01 00:05:14
  TRACK 03 AUDIO
    TITLE "0:"
    INDEX 01 00:09:47
  TRACK 04 AUDIO
    TITLE "4:cjc085_1632"
    INDEX 01 00:10:53
  TRACK 05 AUDIO
    TITLE "2:cjc085_1633"
    INDEX 01 00:13:10
  TRACK 06 AUDIO
    TITLE "0:"
    INDEX 01 00:18:62
  TRACK 07 AUDIO
    TITLE "3:cjc085_1634"
    INDEX 01 00:19:03
  TRACK 08 AUDIO
    TITLE "0:"
    INDEX 01 00:24:00
  TRACK 09 AUDIO
    TITLE "4:cjc085_1635"
    INDEX 01 00:25:37
  TRACK 10 AUDIO
    TITLE "2:cjc085_1636"
    INDEX 01 00:27:63
  TRACK 11 AUDIO
    TITLE "0:"
    INDEX 01 00:32:21
  TRACK 12 AUDIO
    TITLE "3:cjc085_1637"
    INDEX 01 00:32:56
  TRACK 13 AUDIO
    TITLE "0:"
    INDEX 01 00:36:66
  TRACK 14 AUDIO
    TITLE "4:cjc085_1638"
    INDEX 01 00:37:44
  TRACK 15 AUDIO
    TITLE "2:cjc085_1639"
    INDEX 01 00:39:56
  TRACK 16 AUDIO
    TITLE "0:"
    INDEX 01 00:44:09
  TRACK 17 AUDIO
    TITLE "3:cjc085_1640"
    INDEX 01 00:44:40
  TRACK 18 AUDIO
    TITLE "0:"
    INDEX 01 00:48:57
  TRACK 19 AUDIO
    TITLE "4:cjc085_1641"
    INDEX 01 00:49:43
  TRACK 20 AUDIO
    TITLE "2:cjc085_1642"
    INDEX 01 00:51:62
  TRACK 21 AUDIO
    TITLE "0:"
    INDEX 01 00:55:34
  TRACK 22 AUDIO
    TITLE "3:cjc085_1643"
    INDEX 01 00:55:55
  TRACK 23 AUDIO
    TITLE "0:"
    INDEX 01 00:58:67
  TRACK 24 AUDIO
    TITLE "4:cjc085_1644"
    INDEX 01 00:59:63
  TRACK 25 AUDIO
    TITLE "2:cjc085_1645"
    INDEX 01 01:02:16
  TRACK 26 AUDIO
    TITLE "0:"
    INDEX 01 01:09:24
  TRACK 27 AUDIO
    TITLE "3:cjc085_1646"
    INDEX 01 01:10:02
  TRACK 28 AUDIO
    TITLE "0:"
    INDEX 01 01:16:12
  TRACK 29 AUDIO
    TITLE "4:cjc085_1647"
    INDEX 01 01:17:04
  TRACK 30 AUDIO
    TITLE "2:cjc085_1648"
    INDEX 01 01:19:30
  TRACK 31 AUDIO
    TITLE "0:"
    INDEX 01 01:23:58
  TRACK 32 AUDIO
    TITLE "3:cjc085_1649"
    INDEX 01 01:24:28
  TRACK 33 AUDIO
    TITLE "0:"
    INDEX 01 01:27:28
  TRACK 34 AUDIO
    TITLE "4:cjc085_1650"
    INDEX 01 01:28:69
  TRACK 35 AUDIO
    TITLE "2:cjc085_1651"
    INDEX 01 01:31:32
  TRACK 36 AUDIO
    TITLE "0:"
    INDEX 01 01:34:06
  TRACK 37 AUDIO
    TITLE "3:cjc085_1652"
    INDEX 01 01:34:44
  TRACK 38 AUDIO
    TITLE "0:"
    INDEX 01 01:36:60
  TRACK 39 AUDIO
    TITLE "4:cjc085_1653"
    INDEX 01 01:37:32
  TRACK 40 AUDIO
    TITLE "2:cjc085_1654"
    INDEX 01 01:39:45
  TRACK 41 AUDIO
    TITLE "0:"
    INDEX 01 01:43:25
  TRACK 42 AUDIO
    TITLE "3:cjc085_1655"
    INDEX 01 01:43:58
  TRACK 43 AUDIO
    TITLE "0:"
    INDEX 01 01:47:68
  TRACK 44 AUDIO
    TITLE "4:cjc085_1656"
    INDEX 01 01:48:20
  TRACK 45 AUDIO
    TITLE "2:cjc085_1657"
    INDEX 01 01:50:60
  TRACK 46 AUDIO
    TITLE "0:"
    INDEX 01 01:54:23
  TRACK 47 AUDIO
    TITLE "3:cjc085_1658"
    INDEX 01 01:54:39
  TRACK 48 AUDIO
    TITLE "0:"
    INDEX 01 01:56:67
  TRACK 49 AUDIO
    TITLE "4:cjc085_1659"
    INDEX 01 01:57:57
  TRACK 50 AUDIO
    TITLE "2:cjc085_1660"
    INDEX 01 02:00:10
  TRACK 51 AUDIO
    TITLE "0:"
    INDEX 01 02:03:30
  TRACK 52 AUDIO
    TITLE "3:cjc085_1661"
    INDEX 01 02:04:06
  TRACK 53 AUDIO
    TITLE "0:"
    INDEX 01 02:06:69
  TRACK 54 AUDIO
    TITLE "4:cjc085_1662"
    INDEX 01 02:07:51
  TRACK 55 AUDIO
    TITLE "2:cjc085_1663"
    INDEX 01 02:09:54
  TRACK 56 AUDIO
    TITLE "0:"
    INDEX 01 02:12:36
  TRACK 57 AUDIO
    TITLE "3:cjc085_1664"
    INDEX 01 02:12:64
  TRACK 58 AUDIO
    TITLE "0:"
    INDEX 01 02:15:41
  TRACK 59 AUDIO
    TITLE "4:cjc085_1665"
    INDEX 01 02:17:30
  TRACK 60 AUDIO
    TITLE "2:cjc085_1666"
    INDEX 01 02:19:60
  TRACK 61 AUDIO
    TITLE "0:"
    INDEX 01 02:21:73
  TRACK 62 AUDIO
    TITLE "3:cjc085_1667"
    INDEX 01 02:23:15
  TRACK 63 AUDIO
    TITLE "0:"
    INDEX 01 02:25:10
  TRACK 64 AUDIO
    TITLE "4:cjc085_1668"
    INDEX 01 02:26:48
  TRACK 65 AUDIO
    TITLE "2:cjc085_1669"
    INDEX 01 02:28:67
  TRACK 66 AUDIO
    TITLE "0:"
    INDEX 01 02:32:45
  TRACK 67 AUDIO
    TITLE "3:cjc085_1670"
    INDEX 01 02:33:07
  TRACK 68 AUDIO
    TITLE "0:"
    INDEX 01 02:35:65
  TRACK 69 AUDIO
    TITLE "4:cjc085_1671"
    INDEX 01 02:36:64
  TRACK 70 AUDIO
    TITLE "0:"
    INDEX 01 03:38:50
